<svg width="20" height="20" viewBox="0 0 20 20" fill="none" xmlns="http://www.w3.org/2000/svg">
<g id="add (1) 1" clip-path="url(#clip0_362_1042)">
<path id="Vector" d="M8.24239 0.116986C8.20673 0.123481 8.17106 0.129977 8.13432 0.136669C6.50807 0.435877 4.99393 1.14848 3.71114 2.1873C3.68987 2.20449 3.6686 2.22168 3.64669 2.23939C3.09701 2.68776 2.5808 3.18641 2.14864 3.7498C2.11898 3.78615 2.08932 3.82251 2.05877 3.85997C1.75217 4.24236 1.49945 4.65655 1.2502 5.07792C1.22739 5.1161 1.22739 5.1161 1.20412 5.15506C0.613033 6.15613 0.246754 7.3297 0.0783272 8.47636C0.0713997 8.52342 0.0644722 8.57047 0.0573368 8.61895C-0.00512314 9.07432 -0.0137978 9.52604 -0.0120049 9.98515C-0.011898 10.042 -0.011898 10.042 -0.0117874 10.1C-0.0100155 10.6605 0.00935364 11.2062 0.11739 11.7576C0.123884 11.7933 0.130381 11.8289 0.137074 11.8657C0.457634 13.608 1.24964 15.2366 2.42208 16.5623C2.45038 16.5949 2.47867 16.6276 2.50783 16.6612C2.88848 17.0938 3.29472 17.4979 3.7502 17.8514C3.78671 17.8812 3.82322 17.911 3.86083 17.9417C5.12114 18.9512 6.66118 19.5946 8.24239 19.8826C8.27503 19.889 8.30767 19.8954 8.3413 19.902C9.4237 20.1086 10.678 20.0942 11.758 19.8826C11.7937 19.8761 11.8293 19.8696 11.8661 19.8629C13.4923 19.5637 15.0065 18.8511 16.2893 17.8123C16.3105 17.7951 16.3318 17.7779 16.3537 17.7602C16.9034 17.3118 17.4196 16.8132 17.8518 16.2498C17.8814 16.2134 17.9111 16.1771 17.9416 16.1396C18.9517 14.8798 19.595 13.3387 19.883 11.7576C19.8894 11.725 19.8958 11.6923 19.9024 11.6587C20.1091 10.5763 20.0946 9.32203 19.883 8.24199C19.8765 8.20632 19.87 8.17066 19.8633 8.13391C19.5641 6.50766 18.8515 4.99353 17.8127 3.71074C17.7955 3.68947 17.7783 3.6682 17.7606 3.64629C17.3122 3.09661 16.8136 2.58039 16.2502 2.14824C16.2138 2.11858 16.1775 2.08892 16.14 2.05836C14.8802 1.04825 13.3391 0.404956 11.758 0.116986C11.7254 0.110591 11.6927 0.104196 11.6591 0.0976069C10.5767 -0.109052 9.32243 -0.0946077 8.24239 0.116986ZM13.7111 2.42167C13.7389 2.43505 13.7667 2.44844 13.7953 2.46222C14.2412 2.67992 14.6428 2.94451 15.0393 3.24199C15.0758 3.26933 15.1123 3.29667 15.1499 3.32484C15.4274 3.54051 15.6831 3.78131 15.9377 4.02324C15.9701 4.05395 16.0025 4.08467 16.0358 4.11631C16.2564 4.33116 16.452 4.56141 16.6408 4.80449C16.6577 4.82614 16.6745 4.84779 16.6918 4.8701C17.6364 6.09558 18.2066 7.52916 18.3986 9.0623C18.4038 9.10097 18.4089 9.13964 18.4142 9.17949C18.5813 10.7334 18.2558 12.3126 17.5783 13.7107C17.5649 13.7385 17.5516 13.7663 17.5378 13.7949C17.3201 14.2408 17.0555 14.6424 16.758 15.0389C16.7307 15.0754 16.7033 15.1119 16.6752 15.1495C16.4595 15.427 16.2187 15.6827 15.9768 15.9373C15.9307 15.9859 15.9307 15.9859 15.8837 16.0354C15.6688 16.256 15.4386 16.4516 15.1955 16.6404C15.1739 16.6572 15.1522 16.6741 15.1299 16.6914C13.9044 17.636 12.4708 18.2062 10.9377 18.3982C10.8797 18.4059 10.8797 18.4059 10.8205 18.4138C9.26657 18.5809 7.68745 18.2554 6.28926 17.5779C6.26149 17.5645 6.23371 17.5512 6.20509 17.5374C5.75924 17.3197 5.3576 17.0551 4.96114 16.7576C4.92463 16.7303 4.88813 16.7029 4.85051 16.6748C4.57296 16.4591 4.31729 16.2183 4.0627 15.9764C4.03032 15.9456 3.99795 15.9149 3.96459 15.8833C3.74397 15.6684 3.5484 15.4382 3.35958 15.1951C3.33434 15.1626 3.33434 15.1626 3.30859 15.1295C2.36395 13.904 1.79379 12.4704 1.60176 10.9373C1.59406 10.8793 1.59406 10.8793 1.5862 10.8201C1.41906 9.26616 1.74465 7.68704 2.42208 6.28886C2.43546 6.26108 2.44884 6.23331 2.46263 6.20469C2.68033 5.75884 2.94491 5.3572 3.24239 4.96074C3.26973 4.92423 3.29707 4.88772 3.32524 4.85011C3.54092 4.57256 3.78172 4.31689 4.02364 4.0623C4.06971 4.01373 4.06971 4.01373 4.11672 3.96418C4.33156 3.74357 4.56181 3.54799 4.80489 3.35917C4.82654 3.34235 4.84819 3.32552 4.8705 3.30819C6.09598 2.36355 7.52957 1.79338 9.0627 1.60136C9.10137 1.59622 9.14005 1.59109 9.17989 1.5858C10.7338 1.41866 12.313 1.74424 13.7111 2.42167Z" fill="#464748"/>
<path id="Vector_2" d="M9.56313 5.37702C9.40385 5.49434 9.28113 5.63205 9.21843 5.82014C9.21486 5.92651 9.21351 6.03187 9.21399 6.13823C9.21399 6.17064 9.21398 6.20304 9.21398 6.23642C9.214 6.34358 9.21431 6.45074 9.21461 6.5579C9.21469 6.63217 9.21474 6.70645 9.21478 6.78072C9.21493 6.97627 9.21531 7.17181 9.21575 7.36735C9.21615 7.56687 9.21632 7.76639 9.21652 7.9659C9.21694 8.35742 9.21761 8.74893 9.21843 9.14045C9.17802 9.1401 9.1376 9.13975 9.09596 9.1394C8.71436 9.13622 8.33277 9.13388 7.95115 9.13235C7.75498 9.13154 7.55882 9.13044 7.36266 9.12866C7.1732 9.12696 6.98376 9.12603 6.7943 9.12562C6.72216 9.12534 6.65003 9.12477 6.57789 9.12393C6.47654 9.12279 6.37523 9.12264 6.27386 9.12271C6.24431 9.12215 6.21475 9.12159 6.18429 9.12101C5.93442 9.12292 5.73247 9.20159 5.54427 9.36765C5.52649 9.39016 5.50872 9.41267 5.4904 9.43586C5.47192 9.45847 5.45344 9.48108 5.4344 9.50437C5.30636 9.69532 5.33228 9.93661 5.35124 10.1561C5.41175 10.4026 5.55722 10.5243 5.76476 10.6589C5.96807 10.7539 6.18641 10.7475 6.4069 10.7464C6.43742 10.7465 6.46793 10.7465 6.49937 10.7465C6.59955 10.7464 6.69973 10.7461 6.79991 10.7458C6.86964 10.7458 6.93937 10.7457 7.0091 10.7457C7.19212 10.7455 7.37513 10.7451 7.55815 10.7447C7.74511 10.7443 7.93207 10.7441 8.11903 10.7439C8.4855 10.7435 8.85196 10.7428 9.21843 10.742C9.21808 10.7824 9.21774 10.8228 9.21738 10.8645C9.2142 11.2461 9.21186 11.6277 9.21033 12.0093C9.20952 12.2055 9.20842 12.4016 9.20664 12.5978C9.20494 12.7872 9.20401 12.9767 9.2036 13.1661C9.20332 13.2383 9.20275 13.3104 9.20191 13.3825C9.20077 13.4839 9.20062 13.5852 9.20069 13.6866C9.20013 13.7161 9.19957 13.7457 9.19899 13.7761C9.20091 14.0264 9.27622 14.2365 9.45448 14.4162C9.69043 14.5679 9.88993 14.6473 10.1712 14.5903C10.3738 14.5299 10.5485 14.4546 10.6666 14.2704C10.774 14.07 10.803 13.9122 10.7987 13.6866C10.7987 13.6545 10.7987 13.6225 10.7987 13.5895C10.7986 13.4846 10.7974 13.3798 10.7962 13.275C10.7959 13.2019 10.7957 13.1287 10.7955 13.0556C10.7949 12.864 10.7934 12.6724 10.7917 12.4807C10.7901 12.2849 10.7893 12.089 10.7886 11.8931C10.7869 11.5094 10.7842 11.1257 10.7809 10.742C10.8386 10.7423 10.8386 10.7423 10.8975 10.7425C11.2607 10.7441 11.6239 10.7453 11.9871 10.7461C12.1738 10.7465 12.3605 10.747 12.5472 10.7479C12.7275 10.7488 12.9079 10.7492 13.0882 10.7494C13.1569 10.7496 13.2255 10.7498 13.2942 10.7503C13.3906 10.7508 13.4871 10.7509 13.5836 10.7509C13.6117 10.7512 13.6398 10.7514 13.6687 10.7517C13.9783 10.7505 14.2657 10.6924 14.4919 10.4686C14.6521 10.2649 14.6727 10.0518 14.6631 9.7981C14.6341 9.58364 14.5377 9.44759 14.3771 9.30402C14.1654 9.15278 13.9952 9.12918 13.7388 9.13158C13.7068 9.13157 13.6747 9.13156 13.6417 9.13154C13.5363 9.1316 13.4308 9.13221 13.3253 9.13282C13.252 9.13297 13.1788 9.13308 13.1055 9.13315C12.9129 9.13345 12.7203 9.13422 12.5277 9.13508C12.3311 9.13588 12.1344 9.13624 11.9378 9.13663C11.5522 9.13747 11.1665 9.1388 10.7809 9.14045C10.7813 9.09946 10.7816 9.05847 10.782 9.01624C10.7852 8.62945 10.7875 8.24267 10.789 7.85587C10.7898 7.65703 10.7909 7.45819 10.7927 7.25935C10.7944 7.06737 10.7953 6.87539 10.7958 6.6834C10.796 6.61025 10.7966 6.5371 10.7974 6.46395C10.7986 6.36128 10.7987 6.25865 10.7987 6.15597C10.7992 6.12591 10.7998 6.09584 10.8004 6.06487C10.7985 5.82416 10.7281 5.66224 10.565 5.48002C10.2595 5.24052 9.91148 5.17917 9.56313 5.37702Z" fill="#464748"/>
</g>
<defs>
<clipPath id="clip0_362_1042">
<rect width="20" height="20" fill="white" transform="matrix(-1 0 0 1 20 0)"/>
</clipPath>
</defs>
</svg>
