<svg width="18" height="20" viewBox="0 0 18 20" fill="none" xmlns="http://www.w3.org/2000/svg">
<path id="Vector" d="M16.3035 1.67734C17.3121 2.67446 17.9578 4.1203 17.9914 5.55039C17.9934 5.58928 17.9954 5.62817 17.9974 5.66823C18.0477 7.35913 17.3538 8.79885 16.2307 10.0095C15.9207 10.339 15.6001 10.6582 15.2817 10.9794C15.1961 11.0659 15.1106 11.1524 15.025 11.2389C14.7463 11.5208 14.4672 11.8023 14.1882 12.0839C14.1159 12.1569 14.0436 12.2298 13.9713 12.3028C13.5454 12.7327 13.1195 13.1624 12.6934 13.592C12.5896 13.6966 12.4859 13.8012 12.3821 13.9058C12.3563 13.9318 12.3306 13.9578 12.304 13.9845C11.886 14.4059 11.4685 14.8278 11.0511 15.2498C10.6209 15.6848 10.1904 16.1193 9.75949 16.5534C9.51821 16.7966 9.2771 17.0399 9.0364 17.2836C8.81005 17.5128 8.58321 17.7414 8.356 17.9697C8.27308 18.0532 8.19033 18.1369 8.10778 18.2207C7.13479 19.2086 6.07431 19.9805 4.63318 20C3.24887 20.0038 2.17897 19.5716 1.19048 18.5903C1.13882 18.5393 1.13882 18.5393 1.08612 18.4872C0.625904 17.9964 0.355386 17.365 0.162903 16.7275C0.144822 16.6681 0.144822 16.6681 0.126375 16.6076C-0.169323 15.4703 0.0778968 14.2915 0.618289 13.2757C0.99438 12.6919 1.49045 12.2179 1.97615 11.7281C2.06111 11.6421 2.14606 11.556 2.23098 11.4699C2.46067 11.2372 2.6907 11.0049 2.92083 10.7727C3.06485 10.6273 3.20881 10.4819 3.35276 10.3365C3.75235 9.93275 4.15204 9.52914 4.55208 9.12589C4.5776 9.10017 4.60312 9.07444 4.62941 9.04794C4.65499 9.02216 4.68056 8.99638 4.70691 8.96982C4.75873 8.91759 4.81054 8.86536 4.86235 8.81313C4.88805 8.78722 4.91375 8.76132 4.94023 8.73462C5.35658 8.31489 5.77224 7.89446 6.1876 7.47373C6.61539 7.04042 7.04377 6.6077 7.47272 6.17556C7.71302 5.93346 7.95305 5.6911 8.19246 5.44811C8.41774 5.21951 8.64376 4.99167 8.87034 4.76438C8.95299 4.68121 9.03539 4.59779 9.11749 4.51407C9.88387 3.73319 10.6005 3.20857 11.7254 3.17028C12.6026 3.16941 13.3347 3.52386 13.971 4.11768C14.4963 4.67711 14.8301 5.41968 14.8198 6.19054C14.7564 7.05019 14.4829 7.85532 13.8835 8.48151C13.8529 8.51404 13.8222 8.54658 13.7906 8.5801C13.3729 9.02062 12.9445 9.45086 12.5164 9.88107C12.395 10.0031 12.2738 10.1253 12.1527 10.2476C12.0349 10.3664 11.917 10.485 11.799 10.6037C11.7562 10.6469 11.7134 10.6902 11.6693 10.7347C11.4875 10.917 11.3054 11.0958 11.1106 11.264C10.8704 11.4723 10.6489 11.6984 10.4262 11.9254C10.3495 12.0036 10.2725 12.0816 10.1955 12.1596C9.97683 12.3811 9.75849 12.6029 9.54037 12.8248C9.4062 12.9614 9.27177 13.0976 9.13719 13.2337C9.08621 13.2854 9.03533 13.3372 8.98454 13.389C8.91375 13.4613 8.8426 13.5333 8.77145 13.6052C8.73116 13.6462 8.69087 13.6871 8.64935 13.7293C8.41216 13.9425 8.21519 13.9558 7.90528 13.9496C7.64452 13.9187 7.50964 13.7831 7.33991 13.5936C7.18874 13.3737 7.17027 13.1589 7.20183 12.8983C7.35473 12.4969 7.62581 12.2385 7.92735 11.9429C7.98075 11.8897 8.03411 11.8365 8.08741 11.7833C8.20179 11.6693 8.31647 11.5556 8.4314 11.4421C8.6134 11.2624 8.79452 11.0818 8.97549 10.901C9.45763 10.4196 9.94081 9.93937 10.4247 9.45981C10.7429 9.14444 11.0606 8.82855 11.3773 8.51165C11.5568 8.33214 11.7371 8.15348 11.918 7.97544C12.0308 7.8641 12.1428 7.75201 12.2546 7.6397C12.3062 7.58813 12.3581 7.53687 12.4104 7.48596C12.7697 7.13562 13.0375 6.79772 13.0679 6.27828C13.0613 5.91279 12.9311 5.6216 12.6994 5.34341C12.3831 5.06415 12.0487 4.91046 11.6236 4.93591C11.186 4.9727 10.8743 5.23631 10.5778 5.53891C10.5424 5.57415 10.5071 5.60939 10.4707 5.64569C10.353 5.76325 10.2361 5.88153 10.1192 5.99983C10.0347 6.08454 9.95018 6.16921 9.86563 6.25384C9.63649 6.48345 9.40801 6.71371 9.17968 6.94414C8.96456 7.16108 8.74905 7.37763 8.53358 7.59421C8.0806 8.04956 7.62828 8.50557 7.17616 8.96178C6.76341 9.37824 6.34991 9.79394 5.93604 10.2093C5.51025 10.6366 5.08494 11.0644 4.66015 11.4927C4.42199 11.7328 4.18365 11.9727 3.94483 12.2122C3.72011 12.4375 3.49602 12.6636 3.2724 12.89C3.19051 12.9728 3.10839 13.0553 3.02604 13.1376C2.35538 13.8081 1.82118 14.4435 1.75585 15.4346C1.75517 15.9621 1.86093 16.4224 2.1153 16.8827C2.13749 16.9231 2.15968 16.9634 2.18254 17.005C2.55492 17.6202 3.12114 17.9944 3.80499 18.1834C4.49643 18.3473 5.20765 18.2282 5.82423 17.8821C6.42572 17.4829 6.92132 16.9148 7.42863 16.4047C7.51299 16.3201 7.59735 16.2355 7.68173 16.1509C7.95712 15.8746 8.23226 15.598 8.50737 15.3215C8.60251 15.2259 8.69764 15.1303 8.79277 15.0347C9.18855 14.6369 9.58428 14.2391 9.97981 13.8411C10.082 13.7383 10.1843 13.6354 10.2865 13.5326C10.3119 13.507 10.3373 13.4815 10.3635 13.4551C10.7751 13.041 11.1871 12.6273 11.5994 12.2138C12.024 11.7879 12.4483 11.3615 12.8721 10.9348C13.1096 10.6958 13.3472 10.4569 13.5852 10.2185C13.8091 9.99418 14.0326 9.76938 14.2556 9.54419C14.3372 9.46202 14.4189 9.38002 14.5009 9.29821C15.4875 8.31269 16.2082 7.26438 16.2463 5.8164C16.2508 4.67708 15.7624 3.66657 15.0054 2.84505C14.2512 2.12274 13.2168 1.7157 12.179 1.71958C10.7486 1.75636 9.71714 2.47003 8.74951 3.45822C8.69207 3.51628 8.6346 3.57431 8.57709 3.6323C8.45473 3.75585 8.33261 3.87964 8.21068 4.00363C8.01781 4.19974 7.82438 4.39527 7.63086 4.59072C7.25569 4.96981 6.88111 5.34949 6.50658 5.72922C6.02824 6.21414 5.54959 6.69875 5.07049 7.18291C4.87819 7.37727 4.68616 7.57191 4.49434 7.76677C4.37531 7.88758 4.25607 8.00818 4.13678 8.12873C4.08151 8.18466 4.02633 8.24069 3.97125 8.29682C3.89611 8.37336 3.82066 8.44957 3.74512 8.52572C3.70298 8.56845 3.66085 8.61118 3.61743 8.65521C3.37926 8.86959 3.18529 8.88521 2.87355 8.87809C2.65162 8.85308 2.54816 8.79619 2.3722 8.65514C2.18104 8.40832 2.14343 8.22087 2.13939 7.91129C2.23145 7.45313 2.61551 7.14583 2.93041 6.83014C2.98794 6.7719 3.04543 6.71363 3.1029 6.65534C3.25862 6.49758 3.41482 6.34032 3.57115 6.18317C3.70213 6.05142 3.83287 5.91943 3.96362 5.78743C4.27264 5.47548 4.58206 5.16393 4.89174 4.85263C5.20964 4.53306 5.52688 4.21283 5.84379 3.89227C6.11701 3.61594 6.39064 3.34002 6.66458 3.06442C6.82768 2.90033 6.99063 2.7361 7.1532 2.57148C7.30654 2.41623 7.46039 2.26151 7.61461 2.10716C7.67055 2.051 7.72633 1.99467 7.78191 1.93815C10.1559 -0.474463 13.8076 -0.717519 16.3035 1.67734Z" fill="#464748"/>
</svg>
