<svg width="20" height="20" viewBox="0 0 20 20" fill="none" xmlns="http://www.w3.org/2000/svg">
<g id="dashboard-square-01-stroke-rounded 1" clip-path="url(#clip0_584_1571)">
<path id="Vector" d="M1.6665 15C1.6665 13.7163 1.6665 13.0744 1.95545 12.6029C2.11712 12.339 2.33895 12.1172 2.60278 11.9555C3.07429 11.6666 3.71614 11.6666 4.99984 11.6666C6.28354 11.6666 6.92539 11.6666 7.3969 11.9555C7.66073 12.1172 7.88255 12.339 8.04423 12.6029C8.33317 13.0744 8.33317 13.7163 8.33317 15C8.33317 16.2836 8.33317 16.9255 8.04423 17.397C7.88255 17.6609 7.66073 17.8827 7.3969 18.0444C6.92539 18.3333 6.28354 18.3333 4.99984 18.3333C3.71614 18.3333 3.07429 18.3333 2.60278 18.0444C2.33895 17.8827 2.11712 17.6609 1.95545 17.397C1.6665 16.9255 1.6665 16.2836 1.6665 15Z" stroke="white" stroke-width="1.5"/>
<path id="Vector_2" d="M11.6665 15C11.6665 13.7163 11.6665 13.0744 11.9554 12.6029C12.1171 12.339 12.3389 12.1172 12.6028 11.9555C13.0743 11.6666 13.7162 11.6666 14.9998 11.6666C16.2835 11.6666 16.9254 11.6666 17.3969 11.9555C17.6608 12.1172 17.8826 12.339 18.0443 12.6029C18.3332 13.0744 18.3332 13.7163 18.3332 15C18.3332 16.2836 18.3332 16.9255 18.0443 17.397C17.8826 17.6609 17.6608 17.8827 17.3969 18.0444C16.9254 18.3333 16.2835 18.3333 14.9998 18.3333C13.7162 18.3333 13.0743 18.3333 12.6028 18.0444C12.3389 17.8827 12.1171 17.6609 11.9554 17.397C11.6665 16.9255 11.6665 16.2836 11.6665 15Z" stroke="white" stroke-width="1.5"/>
<path id="Vector_3" d="M1.6665 4.99996C1.6665 3.71626 1.6665 3.07441 1.95545 2.6029C2.11712 2.33907 2.33895 2.11724 2.60278 1.95557C3.07429 1.66663 3.71614 1.66663 4.99984 1.66663C6.28354 1.66663 6.92539 1.66663 7.3969 1.95557C7.66073 2.11724 7.88255 2.33907 8.04423 2.6029C8.33317 3.07441 8.33317 3.71626 8.33317 4.99996C8.33317 6.28366 8.33317 6.92551 8.04423 7.39702C7.88255 7.66085 7.66073 7.88268 7.3969 8.04435C6.92539 8.33329 6.28354 8.33329 4.99984 8.33329C3.71614 8.33329 3.07429 8.33329 2.60278 8.04435C2.33895 7.88268 2.11712 7.66085 1.95545 7.39702C1.6665 6.92551 1.6665 6.28366 1.6665 4.99996Z" stroke="white" stroke-width="1.5"/>
<path id="Vector_4" d="M11.6665 4.99996C11.6665 3.71626 11.6665 3.07441 11.9554 2.6029C12.1171 2.33907 12.3389 2.11724 12.6028 1.95557C13.0743 1.66663 13.7162 1.66663 14.9998 1.66663C16.2835 1.66663 16.9254 1.66663 17.3969 1.95557C17.6608 2.11724 17.8826 2.33907 18.0443 2.6029C18.3332 3.07441 18.3332 3.71626 18.3332 4.99996C18.3332 6.28366 18.3332 6.92551 18.0443 7.39702C17.8826 7.66085 17.6608 7.88268 17.3969 8.04435C16.9254 8.33329 16.2835 8.33329 14.9998 8.33329C13.7162 8.33329 13.0743 8.33329 12.6028 8.04435C12.3389 7.88268 12.1171 7.66085 11.9554 7.39702C11.6665 6.92551 11.6665 6.28366 11.6665 4.99996Z" stroke="white" stroke-width="1.5"/>
</g>
<defs>
<clipPath id="clip0_584_1571">
<rect width="20" height="20" fill="white"/>
</clipPath>
</defs>
</svg>
