<svg width="20" height="20" viewBox="0 0 20 20" fill="none" xmlns="http://www.w3.org/2000/svg">
<path d="M16.8 7.45001C16.1241 4.06237 12.9859 1.5 9.21742 1.5C4.95567 1.5 1.5 4.77693 1.5 8.81851C1.5 10.7604 2.29746 12.5249 3.59827 13.8342C3.88467 14.1225 4.07589 14.5164 3.99871 14.9218C3.87135 15.5846 3.58272 16.2029 3.1601 16.7182C4.27205 16.9232 5.42826 16.7386 6.41982 16.2158C6.77034 16.0311 6.94559 15.9387 7.06927 15.9199C7.15584 15.9068 7.26861 15.9191 7.45001 15.9502" stroke="#464748" stroke-width="1.5" stroke-linecap="round" stroke-linejoin="round"/>
<path d="M9.1499 13.6225C9.1499 16.0923 11.2433 18.0949 13.8249 18.0949C14.1284 18.0953 14.4311 18.0672 14.7293 18.0113C14.9439 17.9709 15.0513 17.9508 15.1262 17.9622C15.2011 17.9736 15.3073 18.0302 15.5196 18.143C16.1203 18.4625 16.8207 18.5753 17.4943 18.45C17.2383 18.1351 17.0634 17.7573 16.9862 17.3522C16.9395 17.1045 17.0553 16.8638 17.2288 16.6876C18.0169 15.8874 18.4999 14.8092 18.4999 13.6225C18.4999 11.1526 16.4065 9.15002 13.8249 9.15002C11.2433 9.15002 9.1499 11.1526 9.1499 13.6225Z" stroke="#464748" stroke-width="1.5" stroke-linejoin="round"/>
</svg>
