<svg width="18" height="22" viewBox="0 0 18 22" fill="none" xmlns="http://www.w3.org/2000/svg">
<g id="Group 427319277">
<path id="Vector" d="M17.0001 21V18C17.0001 15.1716 17.0001 13.7573 16.1214 12.8786C15.2427 11.9999 13.8285 11.9999 11.0001 11.9999H7.00004C4.17159 11.9999 2.75737 11.9999 1.87869 12.8786C1 13.7573 1 15.1716 1 18C1 18.9319 1 19.3978 1.15224 19.7653C1.35523 20.2554 1.74459 20.6447 2.23464 20.8477C2.60219 21 3.06813 21 4.00002 21" stroke="white" stroke-width="1.5" stroke-linecap="round" stroke-linejoin="round"/>
<path id="Vector_2" d="M6.50002 11.9999L9.50004 21M4 12.4999V21" stroke="white" stroke-width="1.5" stroke-linecap="round" stroke-linejoin="round"/>
<path id="Vector_3" d="M9 18H11.5C12.3284 18 13 18.6716 13 19.5C13 20.3284 12.3284 21 11.5 21H9.5" stroke="white" stroke-width="1.5" stroke-linecap="round" stroke-linejoin="round"/>
<path id="Vector_4" d="M12.5 5.50003V4.50002C12.5 2.56701 10.933 1 9.00002 1C7.06701 1 5.5 2.56701 5.5 4.50002V5.50003C5.5 7.43305 7.06701 9.00006 9.00002 9.00006C10.933 9.00006 12.5 7.43305 12.5 5.50003Z" stroke="white" stroke-width="1.5" stroke-linecap="round" stroke-linejoin="round"/>
</g>
</svg>
