<svg width="18" height="20" viewBox="0 0 18 20" fill="none" xmlns="http://www.w3.org/2000/svg">
<path d="M16.8 11.6493L16.7999 7.4757C16.7994 6.47918 16.7991 5.98091 16.5569 5.56314C16.3146 5.14537 15.8822 4.90141 15.0174 4.41348L10.6064 1.92467C9.77234 1.45406 9.3553 1.21875 8.9 1.21875C8.4447 1.21875 8.02766 1.45406 7.1936 1.92467L2.78259 4.41348C1.91782 4.90141 1.48544 5.14537 1.24314 5.56314C1.00084 5.98091 1.00061 6.47918 1.00011 7.4757L1 11.6493C1 15.0081 1 16.6875 2.02838 17.7309C3.05676 18.7743 4.71191 18.7743 8.02222 18.7743H9.77778C13.0881 18.7743 14.7433 18.7743 15.7716 17.7309C16.8 16.6875 16.8 15.0081 16.8 11.6493Z" stroke="#1B4066" stroke-width="1.5" stroke-linecap="round"/>
<path d="M7.14423 10.8705H5.38867M12.4109 10.8705H10.6553M7.14423 7.35938H5.38867M7.14423 14.3816H5.38867M12.4109 7.35938H10.6553M12.4109 14.3816H10.6553" stroke="#1B4066" stroke-width="1.5" stroke-linecap="round"/>
</svg>
