<svg width="20" height="20" viewBox="0 0 20 20" fill="none" xmlns="http://www.w3.org/2000/svg">
<g clip-path="url(#clip0_57_226)">
<path d="M11.6667 18.3333V6.66663C11.6667 4.3096 11.6667 3.13109 10.9345 2.39886C10.2022 1.66663 9.02375 1.66663 6.66675 1.66663C4.30972 1.66663 3.13121 1.66663 2.39898 2.39886C1.66675 3.13109 1.66675 4.3096 1.66675 6.66663V13.3333C1.66675 15.6903 1.66675 16.8688 2.39898 17.601C3.13121 18.3333 4.30972 18.3333 6.66675 18.3333H11.6667Z" stroke="#1B4066" stroke-width="1.5" stroke-linecap="round"/>
<path d="M5.41659 9.16671H4.58325M8.74992 9.16671H7.91659M5.41659 5.83337H4.58325M5.41659 12.5H4.58325M8.74992 5.83337H7.91659M8.74992 12.5H7.91659" stroke="#1B4066" stroke-width="1.5" stroke-linecap="round"/>
<path d="M15.4166 12.5H14.5833M15.4166 9.16663H14.5833" stroke="#1B4066" stroke-width="1.5" stroke-linecap="round"/>
<path d="M15.0001 6.66663H11.6667V18.3333H15.0001C16.5714 18.3333 17.3571 18.3333 17.8452 17.8451C18.3334 17.357 18.3334 16.5713 18.3334 15V9.99996C18.3334 8.42863 18.3334 7.64293 17.8452 7.15478C17.3571 6.66663 16.5714 6.66663 15.0001 6.66663Z" stroke="#1B4066" stroke-width="1.5" stroke-linecap="round"/>
</g>
<defs>
<clipPath id="clip0_57_226">
<rect width="20" height="20" fill="white"/>
</clipPath>
</defs>
</svg>
