<svg width="14" height="16" viewBox="0 0 14 16" fill="none" xmlns="http://www.w3.org/2000/svg">
<path d="M3.29396 10.3794C2.32694 10.9552 -0.208518 12.1309 1.33575 13.6022C2.09011 14.3208 2.93027 14.8348 3.98657 14.8348H10.014C11.0703 14.8348 11.9104 14.3208 12.6648 13.6022C14.209 12.1309 11.6736 10.9552 10.7066 10.3794C8.43894 9.02913 5.5616 9.02913 3.29396 10.3794Z" stroke="#464748" stroke-width="1.2" stroke-linecap="round" stroke-linejoin="round"/>
<path d="M10.0774 4.24086C10.0774 5.93959 8.70034 7.31668 7.0016 7.31668C5.30287 7.31668 3.92578 5.93959 3.92578 4.24086C3.92578 2.54213 5.30287 1.16504 7.0016 1.16504C8.70034 1.16504 10.0774 2.54213 10.0774 4.24086Z" stroke="#464748" stroke-width="1.2"/>
</svg>
