<svg width="20" height="20" viewBox="0 0 20 20" fill="none" xmlns="http://www.w3.org/2000/svg">
<path d="M18.335 9.63884C18.335 14.0424 14.6028 17.6127 10 17.6127C9.45884 17.6134 8.91915 17.5633 8.38754 17.4636C8.00491 17.3916 7.81358 17.3557 7.68001 17.3761C7.54643 17.3965 7.35715 17.4972 6.97859 17.6985C5.90767 18.2681 4.65893 18.4692 3.45799 18.2458C3.91444 17.6844 4.22617 17.0107 4.36373 16.2886C4.44707 15.8468 4.24055 15.4177 3.93123 15.1036C2.52632 13.677 1.66504 11.7546 1.66504 9.63884C1.66504 5.23536 5.39726 1.66501 10 1.66501C14.6028 1.66501 18.335 5.23536 18.335 9.63884Z" stroke="#464748" stroke-width="1.5" stroke-linejoin="round"/>
<path d="M9.99626 10H10.0038M13.3265 10H13.334M6.66602 10H6.67349" stroke="#464748" stroke-width="2" stroke-linecap="round" stroke-linejoin="round"/>
</svg>
