<svg width="20" height="20" viewBox="0 0 20 20" fill="none" xmlns="http://www.w3.org/2000/svg">
<g id="office-stroke-rounded 1" clip-path="url(#clip0_352_800)">
<path id="Vector" d="M11.6665 18.3334V6.66669C11.6665 4.30966 11.6665 3.13115 10.9343 2.39892C10.202 1.66669 9.0235 1.66669 6.6665 1.66669C4.30948 1.66669 3.13097 1.66669 2.39874 2.39892C1.6665 3.13115 1.6665 4.30966 1.6665 6.66669V13.3334C1.6665 15.6904 1.6665 16.8689 2.39874 17.6011C3.13097 18.3334 4.30948 18.3334 6.6665 18.3334H11.6665Z" stroke="#1B4066" stroke-width="1.5" stroke-linecap="round"/>
<path id="Vector_2" d="M5.41683 9.16665H4.5835M8.75016 9.16665H7.91683M5.41683 5.83331H4.5835M5.41683 12.5H4.5835M8.75016 5.83331H7.91683M8.75016 12.5H7.91683" stroke="#1B4066" stroke-width="1.5" stroke-linecap="round"/>
<path id="Vector_3" d="M15.4168 12.5H14.5835M15.4168 9.16669H14.5835" stroke="#1B4066" stroke-width="1.5" stroke-linecap="round"/>
<path id="Vector_4" d="M14.9998 6.66669H11.6665V18.3334H14.9998C16.5712 18.3334 17.3568 18.3334 17.845 17.8452C18.3332 17.357 18.3332 16.5714 18.3332 15V10C18.3332 8.42869 18.3332 7.643 17.845 7.15485C17.3568 6.66669 16.5712 6.66669 14.9998 6.66669Z" stroke="#1B4066" stroke-width="1.5" stroke-linecap="round"/>
</g>
<defs>
<clipPath id="clip0_352_800">
<rect width="20" height="20" fill="white"/>
</clipPath>
</defs>
</svg>
