<svg width="21" height="21" viewBox="0 0 21 21" fill="none" xmlns="http://www.w3.org/2000/svg">
<g id="patient-stroke-rounded (1) 1">
<path id="Vector" d="M17.5 19.2499V16.6249C17.5 14.15 17.5 12.9125 16.7311 12.1437C15.9623 11.3749 14.7248 11.3749 12.25 11.3749H8.75C6.27512 11.3749 5.03769 11.3749 4.26885 12.1437C3.5 12.9125 3.5 14.15 3.5 16.6249C3.5 17.4403 3.5 17.848 3.63321 18.1695C3.81083 18.5984 4.15151 18.939 4.5803 19.1166C4.90191 19.2499 5.30961 19.2499 6.125 19.2499" stroke="white" stroke-width="1.5" stroke-linecap="round" stroke-linejoin="round"/>
<path id="Vector_2" d="M8.3125 11.3749L10.9375 19.2499M6.125 11.8124V19.2499" stroke="white" stroke-width="1.5" stroke-linecap="round" stroke-linejoin="round"/>
<path id="Vector_3" d="M10.5 16.6249H12.6875C13.4124 16.6249 14 17.2125 14 17.9374C14 18.6622 13.4124 19.2499 12.6875 19.2499H10.9375" stroke="white" stroke-width="1.5" stroke-linecap="round" stroke-linejoin="round"/>
<path id="Vector_4" d="M13.5625 5.6875V4.8125C13.5625 3.12113 12.1914 1.75 10.5 1.75C8.80863 1.75 7.4375 3.12113 7.4375 4.8125V5.6875C7.4375 7.37887 8.80863 8.75 10.5 8.75C12.1914 8.75 13.5625 7.37887 13.5625 5.6875Z" stroke="white" stroke-width="1.5" stroke-linecap="round" stroke-linejoin="round"/>
</g>
</svg>
