<svg width="16" height="20" viewBox="0 0 16 20" fill="none" xmlns="http://www.w3.org/2000/svg">
<path d="M15 18.7499V16.1249C15 13.65 15 12.4125 14.2311 11.6437C13.4623 10.8749 12.2248 10.8749 9.75 10.8749H6.25C3.77512 10.8749 2.53769 10.8749 1.76885 11.6437C1 12.4125 1 13.65 1 16.1249C1 16.9403 1 17.348 1.13321 17.6695C1.31083 18.0984 1.65151 18.439 2.0803 18.6166C2.40191 18.7499 2.80961 18.7499 3.625 18.7499" stroke="#464748" stroke-width="1.5" stroke-linecap="round" stroke-linejoin="round"/>
<path d="M5.8125 10.8749L8.4375 18.7499M3.625 11.3124V18.7499" stroke="#464748" stroke-width="1.5" stroke-linecap="round" stroke-linejoin="round"/>
<path d="M8 16.1249H10.1875C10.9124 16.1249 11.5 16.7125 11.5 17.4374C11.5 18.1622 10.9124 18.7499 10.1875 18.7499H8.4375" stroke="#464748" stroke-width="1.5" stroke-linecap="round" stroke-linejoin="round"/>
<path d="M11.0625 5.1875V4.3125C11.0625 2.62113 9.69137 1.25 8 1.25C6.30863 1.25 4.9375 2.62113 4.9375 4.3125V5.1875C4.9375 6.87887 6.30863 8.25 8 8.25C9.69137 8.25 11.0625 6.87887 11.0625 5.1875Z" stroke="#464748" stroke-width="1.5" stroke-linecap="round" stroke-linejoin="round"/>
</svg>
