<svg width="21" height="21" viewBox="0 0 21 21" fill="none" xmlns="http://www.w3.org/2000/svg">
<g id="patient-stroke-rounded (1) 1">
<path id="Vector" d="M17.5 19.25V16.625C17.5 14.1502 17.5 12.9126 16.7311 12.1439C15.9623 11.375 14.7248 11.375 12.25 11.375H8.75C6.27512 11.375 5.03769 11.375 4.26885 12.1439C3.5 12.9126 3.5 14.1502 3.5 16.625C3.5 17.4404 3.5 17.8481 3.63321 18.1696C3.81083 18.5985 4.15151 18.9391 4.5803 19.1167C4.90191 19.25 5.30961 19.25 6.125 19.25" stroke="#1B4066" stroke-width="1.5" stroke-linecap="round" stroke-linejoin="round"/>
<path id="Vector_2" d="M8.3125 11.375L10.9375 19.25M6.125 11.8125V19.25" stroke="#1B4066" stroke-width="1.5" stroke-linecap="round" stroke-linejoin="round"/>
<path id="Vector_3" d="M10.5 16.625H12.6875C13.4124 16.625 14 17.2126 14 17.9375C14 18.6624 13.4124 19.25 12.6875 19.25H10.9375" stroke="#1B4066" stroke-width="1.5" stroke-linecap="round" stroke-linejoin="round"/>
<path id="Vector_4" d="M13.5625 5.6875V4.8125C13.5625 3.12113 12.1914 1.75 10.5 1.75C8.80863 1.75 7.4375 3.12113 7.4375 4.8125V5.6875C7.4375 7.37887 8.80863 8.75 10.5 8.75C12.1914 8.75 13.5625 7.37887 13.5625 5.6875Z" stroke="#1B4066" stroke-width="1.5" stroke-linecap="round" stroke-linejoin="round"/>
</g>
</svg>
