<svg width="28" height="28" viewBox="0 0 28 28" fill="none" xmlns="http://www.w3.org/2000/svg">
<g id="Component 7">
<path id="Vector" d="M26.2787 13.0338C26.2615 12.6236 26.1387 12.2249 25.9224 11.876C25.706 11.5271 25.4034 11.2399 25.0436 11.0421L13.6891 4.39142C13.0719 3.96809 12.3487 3.72548 11.601 3.69091C10.8534 3.65635 10.111 3.83121 9.45736 4.1958C8.80376 4.56039 8.26495 5.10022 7.90161 5.75451C7.53828 6.4088 7.36484 7.15156 7.40083 7.89913L7.49522 9.85148C7.50032 9.95716 7.48452 10.0628 7.44874 10.1624C7.41295 10.2619 7.35789 10.3535 7.28669 10.4317L5.57259 12.3187C5.3329 12.5852 5.15634 12.9023 5.05603 13.2464L5.04748 13.2462L5.0489 13.2758C4.90468 13.7853 4.93197 14.328 5.12655 14.8205L5.12797 14.85L5.13646 14.8491C5.26931 15.182 5.47546 15.4807 5.73961 15.7231L7.62677 17.4374C7.78477 17.5807 7.87942 17.7808 7.88993 17.9939L7.98373 19.9457C8.00612 20.4722 8.13251 20.9891 8.3556 21.4666C8.57869 21.9441 8.89408 22.3727 9.28358 22.7278C9.60904 23.0227 9.98017 23.2629 10.3825 23.4391C11.058 23.7409 11.8044 23.8479 12.5374 23.7482C13.2705 23.6484 13.961 23.3457 14.5312 22.8744L25.2176 15.1498C25.5627 14.9193 25.842 14.6031 26.028 14.2321C26.214 13.8612 26.3004 13.4482 26.2787 13.0338ZM9.10271 9.77668L9.00772 7.82379C8.98064 7.37451 9.08227 6.92685 9.3007 6.53333C9.51912 6.13981 9.84527 5.81678 10.2409 5.60213C10.6405 5.3763 11.0966 5.27001 11.555 5.2959C12.0133 5.3218 12.4546 5.47879 12.8263 5.7482L24.0671 12.3337L6.98625 13.1539L8.47688 11.5129C8.69078 11.2792 8.85623 11.0055 8.96365 10.7075C9.07107 10.4095 9.11833 10.0931 9.10271 9.77668ZM13.5457 21.6074C13.2011 21.8948 12.7832 22.0805 12.3389 22.1436C11.8946 22.2067 11.4415 22.1448 11.0305 21.9647C10.6194 21.7846 10.2667 21.4935 10.0119 21.1241C9.75706 20.7546 9.61024 20.3215 9.58791 19.8733L9.49395 17.9181C9.47961 17.6016 9.40265 17.2911 9.26753 17.0045C9.1324 16.7179 8.9418 16.461 8.70673 16.2485L7.0656 14.7577L24.145 13.9416L13.5457 21.6074Z" fill="#464748"/>
</g>
</svg>
