<svg width="19" height="20" viewBox="0 0 19 20" fill="none" xmlns="http://www.w3.org/2000/svg">
<g id="Group 427319371">
<g id="Group 427319370">
<path id="Vector" d="M5.41748 6.46599V5.02026C5.41748 2.89105 7.19749 1.16498 9.39324 1.16498C11.589 1.16498 13.369 2.89105 13.369 5.02026V6.46599" stroke="#1B4066" stroke-width="1.5"/>
<path id="Vector_2" d="M11.0557 6.02423H7.73087C4.29522 6.02423 2.96623 6.8971 2.01611 10.2096C1.16033 13.1933 0.73244 14.6851 1.17981 15.8421C1.45377 16.5505 1.9402 17.1649 2.57748 17.6073C4.88246 19.2075 13.7988 19.2806 16.209 17.6073C16.8463 17.1649 17.3328 16.5505 17.6067 15.8421C18.0541 14.6851 17.6262 13.1933 16.7704 10.2096C15.8581 7.02898 14.6336 6.02423 11.0557 6.02423Z" stroke="#1B4066" stroke-width="1.5"/>
</g>
<path id="Vector_3" d="M9.66667 10.165V15.4983M12.3333 12.8316H7" stroke="#1B4066" stroke-width="1.5" stroke-linecap="round" stroke-linejoin="round"/>
</g>
</svg>
