<svg width="20" height="20" viewBox="0 0 20 20" fill="none" xmlns="http://www.w3.org/2000/svg">
<path d="M8.57425 18.3012H7.82584C5.11876 18.3012 3.76522 18.3012 2.92424 17.4469C2.08325 16.5926 2.08325 15.2177 2.08325 12.4678V8.30116C2.08325 5.5513 2.08325 4.17638 2.92424 3.32211C3.76522 2.46783 5.11876 2.46783 7.82584 2.46783H10.2869C12.994 2.46783 14.5755 2.51382 15.4166 3.36809C16.2576 4.22236 16.2499 5.5513 16.2499 8.30116V9.28983" stroke="#1B4066" stroke-width="1.5" stroke-linecap="round" stroke-linejoin="round"/>
<path d="M13.2877 1.66669V3.33335M9.121 1.66669V3.33335M4.95435 1.66669V3.33335" stroke="#1B4066" stroke-width="1.5" stroke-linecap="round" stroke-linejoin="round"/>
<path d="M5.83325 12.5H9.16659M5.83325 8.33331H12.4999" stroke="#1B4066" stroke-width="1.5" stroke-linecap="round"/>
<path opacity="0.93" d="M17.2999 12.3988C16.5454 11.5534 16.0927 11.6038 15.5897 11.7547C15.2376 11.805 14.0304 13.214 13.5274 13.6627C12.7016 14.4786 11.872 15.3186 11.8173 15.4282C11.6609 15.6823 11.5155 16.1327 11.4451 16.6358C11.3143 17.3907 11.1256 18.2404 11.3646 18.3133C11.6035 18.386 12.2699 18.2462 13.0244 18.1354C13.5274 18.0448 13.8795 17.9442 14.131 17.7933C14.4831 17.5819 15.137 16.8372 16.2637 15.7301C16.9704 14.9861 17.6519 14.472 17.8532 13.9688C18.0544 13.214 17.7526 12.8114 17.2999 12.3988Z" stroke="#1B4066" stroke-width="1.5"/>
</svg>
