<svg width="17" height="22" viewBox="0 0 17 22" fill="none" xmlns="http://www.w3.org/2000/svg">
<path d="M16.2017 19.9183V20.0625V20.5833C16.2017 20.9238 15.9255 21.2 15.585 21.2C15.2445 21.2 14.9683 20.9238 14.9683 20.5833V20.0625C14.9683 18.3448 14.2595 16.5396 13.2293 15.5737L16.2017 19.9183ZM16.2017 19.9183L16.1977 19.917M16.2017 19.9183L16.1977 19.917M16.1977 19.917C16.1587 17.9366 15.3226 15.8472 14.0702 14.6725L14.07 14.6723C13.6794 14.3067 13.1676 14.1134 12.6203 14.1411C12.0712 14.1662 11.5487 14.4162 11.1704 14.8422L11.1702 14.842L11.1637 14.8502L8.5011 18.1865L5.8307 14.8288L5.83093 14.8287L5.82376 14.8206C5.46006 14.4107 4.93846 14.1607 4.39072 14.1353C3.84592 14.1022 3.32903 14.2991 2.93832 14.6648C1.65023 15.8674 0.8 18.034 0.8 20.0617V20.5825C0.8 20.923 1.07621 21.1992 1.41667 21.1992C1.75712 21.1992 2.03333 20.923 2.03333 20.5825V20.0617C2.03333 18.3406 2.74556 16.532 3.78061 15.5662L3.78063 15.5662C3.92241 15.4339 4.11625 15.3677 4.33666 15.3667C4.55302 15.3786 4.75691 15.4777 4.88359 15.6188L8.01762 19.5603L8.01786 19.5606C8.13525 19.7076 8.31293 19.7925 8.50083 19.7925C8.68917 19.7925 8.86585 19.7073 8.98297 19.5606L8.98302 19.5605L12.1102 15.6401C12.2548 15.4804 12.4618 15.3831 12.6784 15.3731L12.6784 15.3731L12.6802 15.373C12.8823 15.3619 13.08 15.4344 13.2291 15.5734L16.1977 19.917ZM8.50167 13.7C11.3696 13.7 13.7017 11.368 13.7017 8.5V3.08333C13.7017 1.82371 12.678 0.8 11.4183 0.8H5.585C4.32538 0.8 3.30167 1.82371 3.30167 3.08333V8.5C3.30167 11.368 5.63371 13.7 8.50167 13.7ZM4.535 3.08333C4.535 2.50462 5.00629 2.03333 5.585 2.03333H11.4183C11.997 2.03333 12.4683 2.50462 12.4683 3.08333V6.63333H4.535V3.08333ZM12.4683 7.86667V8.5C12.4683 10.687 10.6887 12.4667 8.50167 12.4667C6.31462 12.4667 4.535 10.687 4.535 8.5V7.86667H12.4683ZM7.25167 3.71667C6.91121 3.71667 6.635 3.99288 6.635 4.33333C6.635 4.67379 6.91121 4.95 7.25167 4.95H7.885V5.58333C7.885 5.92379 8.16121 6.2 8.50167 6.2C8.84212 6.2 9.11833 5.92379 9.11833 5.58333V4.95H9.75167C10.0921 4.95 10.3683 4.67379 10.3683 4.33333C10.3683 3.99288 10.0921 3.71667 9.75167 3.71667H9.11833V3.08333C9.11833 2.74288 8.84212 2.46667 8.50167 2.46667C8.16121 2.46667 7.885 2.74288 7.885 3.08333V3.71667H7.25167Z" fill="#1B4066" stroke="#1B4066" stroke-width="0.4"/>
</svg>
