<svg width="20" height="20" viewBox="0 0 20 20" fill="none" xmlns="http://www.w3.org/2000/svg">
<g clip-path="url(#clip0_57_165)">
<g clip-path="url(#clip1_57_165)">
<path d="M1.66675 15C1.66675 13.7164 1.66675 13.0744 1.95569 12.6029C2.11736 12.3391 2.33919 12.1173 2.60302 11.9556C3.07453 11.6667 3.71638 11.6667 5.00008 11.6667C6.28378 11.6667 6.92563 11.6667 7.39714 11.9556C7.66097 12.1173 7.8828 12.3391 8.04447 12.6029C8.33341 13.0744 8.33341 13.7164 8.33341 15C8.33341 16.2837 8.33341 16.9256 8.04447 17.3971C7.8828 17.6609 7.66097 17.8828 7.39714 18.0444C6.92563 18.3334 6.28378 18.3334 5.00008 18.3334C3.71638 18.3334 3.07453 18.3334 2.60302 18.0444C2.33919 17.8828 2.11736 17.6609 1.95569 17.3971C1.66675 16.9256 1.66675 16.2837 1.66675 15Z" stroke="#1B4066" stroke-width="1.5"/>
<path d="M11.6667 15C11.6667 13.7164 11.6667 13.0744 11.9557 12.6029C12.1173 12.3391 12.3392 12.1173 12.603 11.9556C13.0745 11.6667 13.7164 11.6667 15.0001 11.6667C16.2837 11.6667 16.9257 11.6667 17.3972 11.9556C17.661 12.1173 17.8828 12.3391 18.0445 12.6029C18.3334 13.0744 18.3334 13.7164 18.3334 15C18.3334 16.2837 18.3334 16.9256 18.0445 17.3971C17.8828 17.6609 17.661 17.8828 17.3972 18.0444C16.9257 18.3334 16.2837 18.3334 15.0001 18.3334C13.7164 18.3334 13.0745 18.3334 12.603 18.0444C12.3392 17.8828 12.1173 17.6609 11.9557 17.3971C11.6667 16.9256 11.6667 16.2837 11.6667 15Z" stroke="#1B4066" stroke-width="1.5"/>
<path d="M1.66675 5.00002C1.66675 3.71632 1.66675 3.07447 1.95569 2.60296C2.11736 2.33913 2.33919 2.1173 2.60302 1.95563C3.07453 1.66669 3.71638 1.66669 5.00008 1.66669C6.28378 1.66669 6.92563 1.66669 7.39714 1.95563C7.66097 2.1173 7.8828 2.33913 8.04447 2.60296C8.33341 3.07447 8.33341 3.71632 8.33341 5.00002C8.33341 6.28372 8.33341 6.92557 8.04447 7.39708C7.8828 7.66091 7.66097 7.88274 7.39714 8.04441C6.92563 8.33335 6.28378 8.33335 5.00008 8.33335C3.71638 8.33335 3.07453 8.33335 2.60302 8.04441C2.33919 7.88274 2.11736 7.66091 1.95569 7.39708C1.66675 6.92557 1.66675 6.28372 1.66675 5.00002Z" stroke="#1B4066" stroke-width="1.5"/>
<path d="M11.6667 5.00002C11.6667 3.71632 11.6667 3.07447 11.9557 2.60296C12.1173 2.33913 12.3392 2.1173 12.603 1.95563C13.0745 1.66669 13.7164 1.66669 15.0001 1.66669C16.2837 1.66669 16.9257 1.66669 17.3972 1.95563C17.661 2.1173 17.8828 2.33913 18.0445 2.60296C18.3334 3.07447 18.3334 3.71632 18.3334 5.00002C18.3334 6.28372 18.3334 6.92557 18.0445 7.39708C17.8828 7.66091 17.661 7.88274 17.3972 8.04441C16.9257 8.33335 16.2837 8.33335 15.0001 8.33335C13.7164 8.33335 13.0745 8.33335 12.603 8.04441C12.3392 7.88274 12.1173 7.66091 11.9557 7.39708C11.6667 6.92557 11.6667 6.28372 11.6667 5.00002Z" stroke="#1B4066" stroke-width="1.5"/>
</g>
</g>
<defs>
<clipPath id="clip0_57_165">
<rect width="20" height="20" fill="white"/>
</clipPath>
<clipPath id="clip1_57_165">
<rect width="20" height="20" fill="white"/>
</clipPath>
</defs>
</svg>
