<svg width="22" height="22" viewBox="0 0 22 22" fill="none" xmlns="http://www.w3.org/2000/svg">
<path d="M19 8.00001C18.2048 4.01455 14.5128 1 10.0793 1C5.0655 1 1 4.85522 1 9.61001C1 11.8946 1.93819 13.9704 3.46855 15.5108C3.80549 15.85 4.03045 16.3134 3.93966 16.7903C3.78982 17.5701 3.45026 18.2975 2.95305 18.9037C4.26123 19.1449 5.62148 18.9277 6.78802 18.3127C7.2004 18.0954 7.40658 17.9867 7.55208 17.9646C7.65393 17.9492 7.7866 17.9636 8.00001 18.0002" stroke="#1B4066" stroke-width="1.5" stroke-linecap="round" stroke-linejoin="round"/>
<path d="M10 15.2617C10 18.1674 12.4628 20.5234 15.5 20.5234C15.8571 20.5238 16.2132 20.4908 16.564 20.425C16.8165 20.3775 16.9428 20.3538 17.0309 20.3673C17.119 20.3807 17.244 20.4472 17.4938 20.58C18.2004 20.9558 19.0244 21.0885 19.8169 20.9411C19.5157 20.5707 19.31 20.1262 19.2192 19.6496C19.1642 19.3582 19.3005 19.075 19.5046 18.8677C20.4317 17.9263 21 16.6578 21 15.2617C21 12.356 18.5372 10 15.5 10C12.4628 10 10 12.356 10 15.2617Z" stroke="#1B4066" stroke-width="1.5" stroke-linejoin="round"/>
</svg>
