<svg width="20" height="20" viewBox="0 0 20 20" fill="none" xmlns="http://www.w3.org/2000/svg">
<g clip-path="url(#clip0_57_209)">
<path d="M18.3334 9.63894C18.3334 14.0416 14.6019 17.6112 10.0001 17.6112C9.459 17.6119 8.91941 17.5619 8.38791 17.4621C8.00536 17.3902 7.81406 17.3543 7.68052 17.3747C7.54697 17.3951 7.35773 17.4957 6.97924 17.697C5.90853 18.2664 4.66004 18.4675 3.45934 18.2442C3.9157 17.6829 4.22737 17.0094 4.3649 16.2874C4.44823 15.8457 4.24175 15.4167 3.93249 15.1026C2.52786 13.6763 1.66675 11.7543 1.66675 9.63894C1.66675 5.23633 5.39823 1.66669 10.0001 1.66669C14.6019 1.66669 18.3334 5.23633 18.3334 9.63894Z" stroke="#1B4066" stroke-width="1.5" stroke-linejoin="round"/>
<path d="M9.99633 10H10.0038M13.3259 10H13.3334M6.66675 10H6.67422" stroke="#1B4066" stroke-width="2" stroke-linecap="round" stroke-linejoin="round"/>
</g>
<defs>
<clipPath id="clip0_57_209">
<rect width="20" height="20" fill="white"/>
</clipPath>
</defs>
</svg>
